<?xml version="1.0" encoding="iso-8859-1"?>
<!-- Generator: Adobe Illustrator 19.0.1, SVG Export Plug-In . SVG Version: 6.00 Build 0)  -->
<svg version="1.1" xmlns="http://www.w3.org/2000/svg" xmlns:xlink="http://www.w3.org/1999/xlink" x="0px" y="0px"
	 viewBox="0 0 128 128" style="enable-background:new 0 0 128 128;" xml:space="preserve">
<g id="_x31_">
	<path style="fill:#232323;" d="M80.015,128h-32.03v-11.693c-3.321-1.014-6.555-2.355-9.643-3.997l-8.274,8.266L7.419,97.93
		l8.27-8.269c-1.636-3.073-2.976-6.306-3.998-9.644H0V47.984h11.693c1.023-3.339,2.362-6.569,3.996-9.639L7.42,30.072L30.069,7.427
		l8.269,8.266c3.093-1.645,6.327-2.985,9.647-3.998V0h32.03v11.693c3.334,1.02,6.567,2.361,9.647,4l8.266-8.266l22.653,22.647
		l-8.272,8.269c1.639,3.082,2.981,6.315,3.999,9.641H128v32.032h-11.692c-1.018,3.328-2.359,6.56-3.998,9.643l8.27,8.27
		l-22.653,22.648l-8.269-8.266c-3.087,1.641-6.321,2.982-9.643,3.996V128z M54.606,121.379h18.789v-10.094l3.428-0.945
		c3.774-1.038,7.434-2.555,10.878-4.506l3.097-1.746l7.13,7.127l13.289-13.286l-7.139-7.139l1.755-3.093
		c1.948-3.432,3.466-7.092,4.511-10.877l0.945-3.426h10.091V54.605h-10.091l-0.945-3.426c-1.045-3.782-2.564-7.443-4.512-10.878
		l-1.75-3.095l7.135-7.133L97.928,16.789l-7.137,7.137l-3.094-1.758c-3.426-1.946-7.085-3.463-10.876-4.51l-3.427-0.941V6.621
		H54.606V16.71l-3.421,0.95c-3.78,1.038-7.439,2.554-10.884,4.509l-3.092,1.756l-7.14-7.137L16.782,30.074l7.145,7.149l-1.766,3.089
		c-1.935,3.407-3.454,7.067-4.505,10.87l-0.942,3.422H6.621v18.791h10.094l0.943,3.429c1.05,3.797,2.567,7.457,4.509,10.873
		l1.759,3.093l-7.141,7.14l13.287,13.287l7.133-7.127l3.089,1.74c3.449,1.955,7.109,3.472,10.885,4.511l3.429,0.945V121.379z
		 M63.999,90.566c-14.648,0-26.564-11.917-26.564-26.566c0-14.648,11.916-26.565,26.564-26.565C78.645,37.435,90.56,49.352,90.56,64
		C90.56,78.649,78.645,90.566,63.999,90.566z M63.999,44.056c-10.997,0-19.943,8.947-19.943,19.944
		c0,10.998,8.946,19.945,19.943,19.945c10.996,0,19.941-8.947,19.941-19.945C83.94,53.003,74.995,44.056,63.999,44.056z"/>
</g>
<g id="Layer_1">
</g>
</svg>
